Coordinates
version=1
nRows=16
nColumns=40
inDegrees=yes

Units are S.I. units (second, meters, Newtons, ...)
Angles are in degrees.

endheader
time	pelvis_tilt	pelvis_list	pelvis_rotation	pelvis_tx	pelvis_ty	pelvis_tz	hip_flexion_r	hip_adduction_r	hip_rotation_r	knee_angle_r	knee_angle_r_beta	ankle_angle_r	subtalar_angle_r	mtp_angle_r	hip_flexion_l	hip_adduction_l	hip_rotation_l	knee_angle_l	knee_angle_l_beta	ankle_angle_l	subtalar_angle_l	mtp_angle_l	lumbar_extension	lumbar_bending	lumbar_rotation	arm_flex_r	arm_add_r	arm_rot_r	elbow_flex_r	pro_sup_r	wrist_flex_r	wrist_dev_r	arm_flex_l	arm_add_l	arm_rot_l	elbow_flex_l	pro_sup_l	wrist_flex_l	wrist_dev_l
     21.90500000	     -7.09003819	     -6.07902283	     -0.63204697	      1.05008635	      0.91263907	      0.44163227	      3.96884174	     -0.64531821	    -13.09353572	     31.84776153	     31.84776153	     13.09187685	     -2.40710693	    -14.63243036	     32.96979578	     -7.66206711	     -0.24993757	     28.98664302	     28.98664302	      6.44261850	    -15.13111999	      6.43558187	    -10.46335356	      4.22078188	      5.16559395	     44.56743339	    -15.91751934	     10.41735120	    115.00627159	     43.62332646	      0.00000000	      0.00000000	    -15.76309462	     -6.65683381	     11.69225556	     28.42753399	     44.39367813	      0.00000000	      0.00000000
     21.91657143	     -7.03745528	     -5.86177657	     -0.76676321	      1.05071218	      0.91424837	      0.43888895	      5.54817086	     -1.61087827	    -12.89529238	     35.62648126	     35.62648126	     11.42158338	     -3.86044740	    -14.94216878	     32.09896303	     -7.39405635	     -0.73694102	     28.79877286	     28.79877286	      7.15439717	    -14.87169497	      6.08995633	    -10.47089097	      4.11092264	      4.72247006	     42.65525097	    -15.81561185	     10.91946952	    114.83290273	     43.61344733	      0.00000000	      0.00000000	    -14.59245953	     -6.79219277	     11.63628494	     28.86505701	     44.42878955	      0.00000000	      0.00000000
     21.92814286	     -7.17981529	     -5.79933764	     -0.92582235	      1.05098414	      0.91552900	      0.43657866	      7.55746440	     -2.17587383	    -12.22756545	     39.52057354	     39.52057354	      9.31031590	     -6.46116471	    -15.14310630	     31.44154967	     -7.32583721	     -1.19679367	     28.53169093	     28.53169093	      7.70766733	    -14.46285043	      5.53515394	    -10.31261178	      4.12373643	      4.74319796	     40.34471452	    -16.33814973	     11.01571768	    115.07088069	     43.61984824	      0.00000000	      0.00000000	    -13.34588521	     -7.05308824	     11.32343571	     29.57475586	     44.51881785	      0.00000000	      0.00000000
     21.93971429	     -7.23545970	     -5.59389698	     -1.09402976	      1.05112921	      0.91686454	      0.43432940	      9.58339387	     -2.98930414	    -11.86456701	     43.50373330	     43.50373330	      7.36660829	     -8.44680079	    -14.81518729	     30.62256458	     -7.13065451	     -1.80134758	     28.14929441	     28.14929441	      8.21129749	    -13.96888043	      5.04628247	    -10.25777367	      3.98064776	      4.53724446	     38.02189643	    -16.52604339	     11.24935476	    114.82327714	     43.62553659	      0.00000000	      0.00000000	    -12.03710027	     -7.31366511	     11.01159334	     30.21084617	     44.59868362	      0.00000000	      0.00000000
     21.95128571	     -7.26686291	     -5.38330197	     -1.28199684	      1.05109372	      0.91810357	      0.43232802	     11.69869363	     -3.71314023	    -11.37928312	     47.46337269	     47.46337269	      5.51698482	    -10.47518444	    -14.04635424	     29.78177213	     -6.95106394	     -2.43408588	     27.75576207	     27.75576207	      8.69579018	    -13.43339278	      4.55834837	    -10.24135387	      3.82319113	      4.33817615	     35.60041176	    -16.69755897	     11.51562155	    114.27563266	     43.63474211	      0.00000000	      0.00000000	    -10.69179960	     -7.67841823	     10.64247003	     30.88517049	     44.68217687	      0.00000000	      0.00000000
     21.96285714	     -7.31535889	     -5.19721358	     -1.49169017	      1.05085945	      0.91927858	      0.43057954	     13.89859357	     -4.30320959	    -10.84150644	     51.28561297	     51.28561297	      3.84093407	    -12.54592080	    -12.78233240	     28.97152130	     -6.83320426	     -3.14325261	     27.35233531	     27.35233531	      9.09628653	    -12.81755478	      4.03181589	    -10.23386583	      3.67909966	      4.19979582	     33.08606797	    -16.94055874	     11.68583292	    113.43720563	     43.65550548	      0.00000000	      0.00000000	     -9.26830718	     -8.09113897	     10.16895353	     31.66161245	     44.78003361	      0.00000000	      0.00000000
     21.97442857	     -7.30202046	     -5.13129154	     -1.66590711	      1.05052736	      0.92039238	      0.42904317	     16.24225657	     -4.68751100	    -10.32101585	     55.39479221	     55.39479221	      4.60125420	    -13.04967382	     -5.16942933	     28.08287589	     -6.86816692	     -3.89346328	     26.85964797	     26.85964797	      8.94709680	    -12.15936072	      1.88152433	    -10.33727575	      3.63315486	      4.41167002	     30.15458094	    -17.14901158	     10.63890260	    112.67761648	     43.81261959	      0.00000000	      0.00000000	     -7.69253907	     -8.11940919	      7.17234036	     32.88781891	     45.30357938	      0.00000000	      0.00000000
     21.98600000	     -7.28026098	     -4.89256383	     -1.85135495	      1.05006813	      0.92150206	      0.42752047	     18.36209339	     -5.27155305	     -9.91879436	     58.70249314	     58.70249314	      3.29986129	    -14.60624216	     -4.57854514	     27.19570748	     -6.66164955	     -4.53801589	     26.41238557	     26.41238557	      9.38995285	    -11.57724628	      1.60891948	    -10.42877811	      3.42415356	      4.04623181	     27.73945029	    -17.21175497	     11.13536618	    111.25298909	     43.83869638	      0.00000000	      0.00000000	     -6.12508929	     -8.60284679	      6.84565746	     33.51982048	     45.37520974	      0.00000000	      0.00000000
     21.99757143	     -7.23432738	     -4.79196054	     -2.02881678	      1.04956453	      0.92259178	      0.42627070	     20.56220525	     -5.59366339	     -9.47945808	     61.99585906	     61.99585906	      3.72062221	    -15.21560083	      0.25136383	     26.30582962	     -6.68426559	     -5.38475448	     25.99182394	     25.99182394	      9.70612487	    -10.56746571	      0.58226439	    -10.50949116	      3.34824128	      3.78090769	     25.36931575	    -17.01802080	     10.71660996	    108.65458020	     44.01166422	      0.00000000	      0.00000000	     -4.54338336	     -8.79340553	      4.64492878	     34.48282665	     45.73181331	      0.00000000	      0.00000000
     22.00914286	     -7.17855251	     -4.57572532	     -2.19259033	      1.04899317	      0.92366395	      0.42499234	     22.57905305	     -6.05785833	     -9.12237845	     64.64509392	     64.64509392	      2.97001103	    -16.18868948	      0.52850785	     25.38226727	     -6.48791726	     -6.00434769	     25.51335492	     25.51335492	     10.12516061	     -9.93034746	      0.32896295	    -10.63881639	      3.17245866	      3.52338594	     22.95500021	    -17.24435438	     11.07102011	    106.75822782	     44.05806312	      0.00000000	      0.00000000	     -2.76796436	     -9.31491920	      4.31007358	     35.18574540	     45.80391487	      0.00000000	      0.00000000
     22.02071429	     -7.07440139	     -4.44809439	     -2.36590147	      1.04844080	      0.92478949	      0.42391126	     24.47834635	     -6.37553672	     -8.79930318	     66.92440884	     66.92440884	      2.70233695	    -16.75885553	      1.24903849	     24.39703190	     -6.43612066	     -6.76473898	     25.03651871	     25.03651871	     10.64149500	     -8.91844321	     -0.18299120	    -10.79030111	      3.08356867	      3.49341823	     20.67968115	    -17.39187553	     10.69229597	    103.63936960	     44.17469444	      0.00000000	      0.00000000	     -0.78893339	     -9.77750676	      3.78399690	     35.94168862	     45.90308865	      0.00000000	      0.00000000
     22.03228571	     -6.95729293	     -4.28283243	     -2.53547871	      1.04783603	      0.92593137	      0.42300979	     26.31164119	     -6.72362310	     -8.51337160	     68.80494234	     68.80494234	      2.47142578	    -17.03949017	      1.73256772	     23.41711431	     -6.31442387	     -7.44886891	     24.55412310	     24.55412310	     10.96799852	     -8.20859971	     -0.50487066	    -10.98213924	      2.89329336	      3.18639539	     18.36029225	    -17.27164905	     10.60278354	    101.02932745	     44.26211974	      0.00000000	      0.00000000	      1.12794993	    -10.33160709	      3.35149438	     36.55069683	     45.98626394	      0.00000000	      0.00000000
     22.04385714	     -6.82622339	     -4.14795478	     -2.69441227	      1.04728758	      0.92699330	      0.42218202	     28.03972386	     -6.97263558	     -8.18504434	     70.25671020	     70.25671020	      2.38561201	    -17.10279747	      1.94966564	     22.39883210	     -6.19100189	     -8.01820755	     24.03316933	     24.03316933	     11.36014095	     -7.52014044	     -0.83117424	    -11.15087092	      2.78548976	      2.99580790	     16.12654087	    -17.27701795	     10.44712494	     98.17095675	     44.35728623	      0.00000000	      0.00000000	      3.14612038	    -10.87657149	      2.98768615	     37.14653001	     46.06119781	      0.00000000	      0.00000000
     22.05542857	     -6.62871515	     -4.10384667	     -2.84135434	      1.04677381	      0.92814329	      0.42153989	     29.56026599	     -7.10031868	     -7.93864381	     71.20737717	     71.20737717	      2.35659388	    -16.96054503	      2.19076243	     21.33414955	     -6.17871628	     -8.61315326	     23.56613236	     23.56613236	     11.72593572	     -6.75736839	     -1.34532690	    -11.37575543	      2.74529633	      2.72450790	     14.15550442	    -16.79657873	      9.61296222	     94.20783912	     44.51698329	      0.00000000	      0.00000000	      5.30708606	    -11.39115781	      2.60589304	     37.35065296	     46.14085062	      0.00000000	      0.00000000
     22.06700000	     -6.47996588	     -4.01590564	     -3.00378127	      1.04623043	      0.92912588	      0.42096398	     31.03567233	     -7.24299148	     -7.66059834	     71.70971165	     71.70971165	      2.27423982	    -16.66778014	      2.05830445	     20.29138623	     -6.06674534	     -9.06177956	     23.01024002	     23.01024002	     12.04682217	     -6.25995389	     -1.64058126	    -11.56962848	      2.68138938	      2.60034444	     12.18294985	    -16.85063589	      9.26687113	     90.99806854	     44.63204543	      0.00000000	      0.00000000	      7.49885867	    -11.92636390	      2.37531741	     37.79003138	     46.20131549	      0.00000000	      0.00000000
     22.07857143	     -6.32925616	     -3.95819529	     -3.18032032	      1.04569372	      0.93002713	      0.42053383	     32.37916828	     -7.31538487	     -7.39027226	     71.73195425	     71.73195425	      2.13769754	    -16.24512369	      1.75399263	     19.25327337	     -5.98264425	     -9.48008617	     22.46508798	     22.46508798	     12.34315351	     -5.82827662	     -1.93762937	    -11.77107729	      2.65531212	      2.49949674	     10.31898336	    -16.81641963	      8.74575548	     87.41390201	     44.76406229	      0.00000000	      0.00000000	      9.69970188	    -12.43580511	      2.29615226	     38.15340557	     46.24347845	      0.00000000	      0.00000000
